<?xml version="1.0" encoding="UTF-8"?>
<svg xmlns="http://www.w3.org/2000/svg" xmlns:xlink="http://www.w3.org/1999/xlink" viewBox="0 0 128 128" width="128px" height="128px">
<g id="surface69867994">
<path style=" stroke:none;fill-rule:nonzero;fill:rgb(100%,100%,100%);fill-opacity:1;" d="M 4 27 L 4 101 L 39.75 101 C 43.0625 101 65.875 100.328125 65.875 79.5 C 65.875 66.484375 56.921875 62.0625 52.375 60.75 C 55.71875 59.171875 62.375 55.421875 62.375 45.375 C 62.375 39.78125 61.578125 27 38.75 27 Z M 85.5 33.875 L 85.5 40.625 L 113.125 40.625 L 113.125 33.875 Z M 20.25 39.625 L 35.5 39.625 C 36.9375 39.625 46.625 38.859375 46.625 48.125 C 46.625 56.046875 39.625 56.875 36.75 56.875 L 20.25 56.875 Z M 100 46.75 C 79.109375 46.75 74.75 64.890625 74.75 72.75 C 74.75 96.078125 93.875 98.75 100 98.75 C 116.515625 98.75 121.203125 88.0625 123.125 82.125 L 111.125 82.125 C 110.65625 83.65625 107.15625 88.625 100.5 88.625 C 89.34375 88.625 88.375 79.90625 88.375 76 L 123.875 76 C 124.59375 62.5 118.6875 46.75 100 46.75 Z M 99.625 56.875 C 102.953125 56.875 105.640625 57.84375 107.25 59.625 C 108.859375 61.421875 110.046875 64.046875 110.375 67.5 L 88.375 67.5 C 88.4375 66.546875 88.65625 65.453125 89 64.25 C 89.34375 63.015625 89.875 61.84375 90.75 60.75 C 91.625 59.671875 92.84375 58.734375 94.25 58 C 95.6875 57.25 97.46875 56.875 99.625 56.875 Z M 20.25 68 L 37.875 68 C 41.375 68 49.625 68.546875 49.625 78.625 C 49.625 88.390625 39.234375 88.375 37.625 88.375 L 20.25 88.375 Z M 20.25 68 "/>
</g>
</svg>
