<?xml version="1.0" encoding="UTF-8"?>
<svg xmlns="http://www.w3.org/2000/svg" xmlns:xlink="http://www.w3.org/1999/xlink" viewBox="0 0 144 144" width="144px" height="144px">
<g id="surface69731551">
<path style=" stroke:none;fill-rule:nonzero;fill:rgb(100%,100%,100%);fill-opacity:1;" d="M 126 37.285156 C 122.03125 39.046875 117.761719 40.21875 113.257812 40.773438 C 117.835938 38.054688 121.359375 33.71875 123.011719 28.597656 C 118.726562 31.109375 113.980469 32.953125 108.933594 33.925781 C 104.902344 29.652344 99.148438 27 92.777344 27 C 80.539062 27 70.617188 36.835938 70.617188 48.960938 C 70.617188 50.675781 70.816406 52.347656 71.195312 53.96875 C 52.78125 53.046875 36.449219 44.292969 25.523438 31.007812 C 23.605469 34.253906 22.523438 38.054688 22.523438 42.066406 C 22.523438 49.6875 26.425781 56.398438 32.378906 60.355469 C 28.746094 60.242188 25.324219 59.230469 22.332031 57.613281 C 22.332031 57.679688 22.332031 57.777344 22.332031 57.871094 C 22.332031 68.523438 29.972656 77.394531 40.101562 79.414062 C 38.25 79.921875 36.292969 80.203125 34.277344 80.203125 C 32.847656 80.203125 31.453125 80.039062 30.101562 79.796875 C 32.921875 88.503906 41.101562 94.867188 50.796875 95.054688 C 43.210938 100.933594 33.660156 104.457031 23.273438 104.457031 C 21.480469 104.457031 19.726562 104.355469 17.992188 104.144531 C 27.804688 110.359375 39.457031 114 51.964844 114 C 92.71875 114 115.015625 80.53125 115.015625 51.496094 C 115.015625 50.546875 114.984375 49.597656 114.9375 48.664062 C 119.289062 45.589844 123.039062 41.714844 126 37.285156 "/>
</g>
</svg>
